<svg width="430" height="430" viewBox="0 0 430 430" fill="none" xmlns="http://www.w3.org/2000/svg">
<rect width="430" height="430" rx="215" fill="white"/>
<path d="M139.145 311H136.715L126.59 295.313V311H124.025V291.668H126.59L136.58 306.95V291.668H139.145V311ZM159.53 304.007C159.53 306.077 158.828 307.814 157.424 309.218C156.02 310.622 154.283 311.324 152.213 311.324C150.143 311.324 148.406 310.622 147.002 309.218C145.598 307.814 144.896 306.077 144.896 304.007C144.896 301.955 145.598 300.218 147.002 298.796C148.406 297.374 150.143 296.663 152.213 296.663C154.283 296.663 156.02 297.374 157.424 298.796C158.828 300.218 159.53 301.955 159.53 304.007ZM152.213 309.164C153.617 309.164 154.76 308.669 155.642 307.679C156.542 306.689 156.992 305.465 156.992 304.007C156.992 302.549 156.542 301.325 155.642 300.335C154.76 299.345 153.617 298.85 152.213 298.85C150.809 298.85 149.657 299.345 148.757 300.335C147.857 301.325 147.407 302.549 147.407 304.007C147.407 305.465 147.857 306.689 148.757 307.679C149.657 308.669 150.809 309.164 152.213 309.164ZM171.548 311H169.523L163.097 297.203H165.77L170.522 307.841L175.274 297.203H177.974L171.548 311ZM186.428 311.378C185.042 311.378 183.881 311 182.945 310.244C182.009 309.488 181.541 308.48 181.541 307.22C181.541 303.8 184.619 302.045 190.775 301.955C190.505 299.921 189.389 298.904 187.427 298.904C185.933 298.904 184.322 299.237 182.594 299.903L182.324 297.608C184.16 297.068 185.906 296.798 187.562 296.798C191.396 296.798 193.313 298.769 193.313 302.711V307.301C193.313 308.327 193.502 309.515 193.88 310.865L191.504 311.378L191.099 309.569C189.695 310.775 188.138 311.378 186.428 311.378ZM190.775 306.626V304.169C186.347 304.259 184.133 305.195 184.133 306.977C184.133 308.417 184.934 309.137 186.536 309.137C187.472 309.137 188.408 308.894 189.344 308.408C190.298 307.904 190.775 307.31 190.775 306.626ZM199.381 317.129L198.733 315.023C201.145 314.483 202.918 312.8 204.052 309.974L197.923 297.203H200.731L205.51 307.436L210.073 297.203H212.881L206.536 310.703C204.826 314.303 202.441 316.445 199.381 317.129ZM221.385 311.378C219.999 311.378 218.838 311 217.902 310.244C216.966 309.488 216.498 308.48 216.498 307.22C216.498 303.8 219.576 302.045 225.732 301.955C225.462 299.921 224.346 298.904 222.384 298.904C220.89 298.904 219.279 299.237 217.551 299.903L217.281 297.608C219.117 297.068 220.863 296.798 222.519 296.798C226.353 296.798 228.27 298.769 228.27 302.711V307.301C228.27 308.327 228.459 309.515 228.837 310.865L226.461 311.378L226.056 309.569C224.652 310.775 223.095 311.378 221.385 311.378ZM225.732 306.626V304.169C221.304 304.259 219.09 305.195 219.09 306.977C219.09 308.417 219.891 309.137 221.493 309.137C222.429 309.137 223.365 308.894 224.301 308.408C225.255 307.904 225.732 307.31 225.732 306.626ZM252.155 291.452C254.315 291.452 256.106 291.92 257.528 292.856C258.968 293.774 259.688 295.124 259.688 296.906C259.688 299.12 258.626 300.722 256.502 301.712C257.69 302.504 258.527 303.584 259.013 304.952C259.499 306.32 259.94 308.336 260.336 311H257.771C257.033 305.402 255.35 302.603 252.722 302.603H249.482V311H246.917V291.992C248.915 291.632 250.661 291.452 252.155 291.452ZM257.204 297.068C257.204 294.818 255.521 293.693 252.155 293.693C251.147 293.693 250.256 293.738 249.482 293.828V300.47H252.614C255.674 300.47 257.204 299.336 257.204 297.068ZM268.213 311H265.648V297.203H268.213V311ZM266.863 291.182C267.403 291.182 267.862 291.371 268.24 291.749C268.636 292.127 268.834 292.586 268.834 293.126C268.834 293.666 268.636 294.125 268.24 294.503C267.862 294.881 267.403 295.07 266.863 295.07C266.323 295.07 265.864 294.881 265.486 294.503C265.108 294.125 264.919 293.666 264.919 293.126C264.919 292.586 265.108 292.127 265.486 291.749C265.864 291.371 266.323 291.182 266.863 291.182ZM274.238 301.982C274.238 300.524 274.724 299.318 275.696 298.364C276.686 297.392 277.91 296.906 279.368 296.906H285.2V298.661H283.175C283.607 298.841 283.967 299.237 284.255 299.849C284.561 300.443 284.714 301.064 284.714 301.712C284.714 303.332 284.264 304.601 283.364 305.519C282.464 306.437 281.213 306.896 279.611 306.896C278.981 306.896 278.396 306.806 277.856 306.626C277.712 306.77 277.64 306.941 277.64 307.139C277.64 307.553 278.621 308.03 280.583 308.57C283.391 309.362 284.795 310.784 284.795 312.836C284.795 314.222 284.3 315.275 283.31 315.995C282.32 316.733 281.015 317.102 279.395 317.102C277.919 317.102 276.416 316.634 274.886 315.698L275.777 313.673C277.217 314.519 278.477 314.942 279.557 314.942C280.313 314.942 280.988 314.753 281.582 314.375C282.176 314.015 282.473 313.538 282.473 312.944C282.473 312.116 281.717 311.396 280.205 310.784C279.107 310.334 278.018 309.821 276.938 309.245C275.876 308.669 275.345 307.931 275.345 307.031C275.345 306.563 275.462 306.005 275.696 305.357C274.724 304.313 274.238 303.188 274.238 301.982ZM279.611 304.79C280.511 304.79 281.222 304.529 281.744 304.007C282.284 303.467 282.554 302.765 282.554 301.901C282.554 301.091 282.266 300.407 281.69 299.849C281.114 299.273 280.421 298.985 279.611 298.985C278.801 298.985 278.099 299.273 277.505 299.849C276.929 300.407 276.641 301.091 276.641 301.901C276.641 302.711 276.929 303.395 277.505 303.953C278.099 304.511 278.801 304.79 279.611 304.79ZM295.055 311.378C293.669 311.378 292.508 311 291.572 310.244C290.636 309.488 290.168 308.48 290.168 307.22C290.168 303.8 293.246 302.045 299.402 301.955C299.132 299.921 298.016 298.904 296.054 298.904C294.56 298.904 292.949 299.237 291.221 299.903L290.951 297.608C292.787 297.068 294.533 296.798 296.189 296.798C300.023 296.798 301.94 298.769 301.94 302.711V307.301C301.94 308.327 302.129 309.515 302.507 310.865L300.131 311.378L299.726 309.569C298.322 310.775 296.765 311.378 295.055 311.378ZM299.402 306.626V304.169C294.974 304.259 292.76 305.195 292.76 306.977C292.76 308.417 293.561 309.137 295.163 309.137C296.099 309.137 297.035 308.894 297.971 308.408C298.925 307.904 299.402 307.31 299.402 306.626Z" fill="#3B1500"/>
<mask id="path-3-outside-1_1448_117" maskUnits="userSpaceOnUse" x="60" y="192" width="299" height="58" fill="black">
<rect fill="white" x="60" y="192" width="299" height="58"/>
<path d="M88.353 247H82.002L61.854 194.732H69.373L85.141 237.583L100.982 194.732H108.428L88.353 247ZM189.808 220.866C189.808 214.929 188.056 209.916 184.552 205.828C181.096 201.74 176.595 199.696 171.047 199.696C165.45 199.696 160.9 201.74 157.396 205.828C153.94 209.916 152.213 214.929 152.213 220.866C152.213 226.803 153.94 231.816 157.396 235.904C160.9 239.992 165.45 242.036 171.047 242.036C176.595 242.036 181.096 239.992 184.552 235.904C188.056 231.816 189.808 226.803 189.808 220.866ZM196.597 221.012C196.597 228.653 194.188 235.077 189.37 240.284C184.552 245.491 178.444 248.095 171.047 248.095C163.601 248.095 157.469 245.491 152.651 240.284C147.833 235.077 145.424 228.653 145.424 221.012C145.424 213.079 147.808 206.558 152.578 201.448C157.396 196.289 163.552 193.71 171.047 193.71C178.541 193.71 184.673 196.289 189.443 201.448C194.212 206.558 196.597 213.079 196.597 221.012ZM259.033 247H252.244V224.151L233.118 194.732H241.148L255.602 218.238L269.983 194.732H277.94L259.033 224.078V247ZM356.792 247H349.2L342.265 229.553H321.314L314.525 247H307.006L328.979 193.929H334.965L356.792 247ZM339.637 223.64L331.972 201.886L323.869 223.64H339.637Z"/>
</mask>
<path d="M88.353 247H82.002L61.854 194.732H69.373L85.141 237.583L100.982 194.732H108.428L88.353 247ZM189.808 220.866C189.808 214.929 188.056 209.916 184.552 205.828C181.096 201.74 176.595 199.696 171.047 199.696C165.45 199.696 160.9 201.74 157.396 205.828C153.94 209.916 152.213 214.929 152.213 220.866C152.213 226.803 153.94 231.816 157.396 235.904C160.9 239.992 165.45 242.036 171.047 242.036C176.595 242.036 181.096 239.992 184.552 235.904C188.056 231.816 189.808 226.803 189.808 220.866ZM196.597 221.012C196.597 228.653 194.188 235.077 189.37 240.284C184.552 245.491 178.444 248.095 171.047 248.095C163.601 248.095 157.469 245.491 152.651 240.284C147.833 235.077 145.424 228.653 145.424 221.012C145.424 213.079 147.808 206.558 152.578 201.448C157.396 196.289 163.552 193.71 171.047 193.71C178.541 193.71 184.673 196.289 189.443 201.448C194.212 206.558 196.597 213.079 196.597 221.012ZM259.033 247H252.244V224.151L233.118 194.732H241.148L255.602 218.238L269.983 194.732H277.94L259.033 224.078V247ZM356.792 247H349.2L342.265 229.553H321.314L314.525 247H307.006L328.979 193.929H334.965L356.792 247ZM339.637 223.64L331.972 201.886L323.869 223.64H339.637Z" fill="#3B1500"/>
<path d="M88.353 247V248H89.0401L89.2865 247.359L88.353 247ZM82.002 247L81.0689 247.36L81.3158 248H82.002V247ZM61.854 194.732V193.732H60.3968L60.9209 195.092L61.854 194.732ZM69.373 194.732L70.3115 194.387L70.0706 193.732H69.373V194.732ZM85.141 237.583L84.2025 237.928L85.1388 240.473L86.079 237.93L85.141 237.583ZM100.982 194.732V193.732H100.286L100.044 194.385L100.982 194.732ZM108.428 194.732L109.362 195.091L109.883 193.732H108.428V194.732ZM88.353 246H82.002V248H88.353V246ZM82.9351 246.64L62.7871 194.372L60.9209 195.092L81.0689 247.36L82.9351 246.64ZM61.854 195.732H69.373V193.732H61.854V195.732ZM68.4345 195.077L84.2025 237.928L86.0795 237.238L70.3115 194.387L68.4345 195.077ZM86.079 237.93L101.92 195.079L100.044 194.385L84.203 237.236L86.079 237.93ZM100.982 195.732H108.428V193.732H100.982V195.732ZM107.494 194.373L87.4195 246.641L89.2865 247.359L109.362 195.091L107.494 194.373ZM184.552 205.828L183.788 206.474L183.792 206.479L184.552 205.828ZM157.396 205.828L156.636 205.177L156.632 205.182L157.396 205.828ZM157.396 235.904L156.632 236.55L156.636 236.555L157.396 235.904ZM184.552 235.904L183.792 235.253L183.788 235.258L184.552 235.904ZM152.651 240.284L153.385 239.605L152.651 240.284ZM152.578 201.448L151.847 200.765L151.847 200.766L152.578 201.448ZM189.443 201.448L188.708 202.127L188.712 202.13L189.443 201.448ZM190.808 220.866C190.808 214.716 188.987 209.465 185.311 205.177L183.792 206.479C187.125 210.367 188.808 215.141 188.808 220.866H190.808ZM185.315 205.182C181.662 200.86 176.877 198.696 171.047 198.696V200.696C176.313 200.696 180.53 202.62 183.788 206.474L185.315 205.182ZM171.047 198.696C165.171 198.696 160.339 200.858 156.636 205.177L158.155 206.479C161.46 202.622 165.729 200.696 171.047 200.696V198.696ZM156.632 205.182C153.007 209.471 151.213 214.72 151.213 220.866H153.213C153.213 215.137 154.873 210.361 158.159 206.474L156.632 205.182ZM151.213 220.866C151.213 227.012 153.007 232.261 156.632 236.55L158.159 235.258C154.873 231.371 153.213 226.595 153.213 220.866H151.213ZM156.636 236.555C160.339 240.874 165.171 243.036 171.047 243.036V241.036C165.729 241.036 161.46 239.11 158.155 235.253L156.636 236.555ZM171.047 243.036C176.877 243.036 181.662 240.872 185.315 236.55L183.788 235.258C180.53 239.112 176.313 241.036 171.047 241.036V243.036ZM185.311 236.555C188.987 232.267 190.808 227.016 190.808 220.866H188.808C188.808 226.591 187.125 231.365 183.792 235.253L185.311 236.555ZM195.597 221.012C195.597 228.422 193.269 234.597 188.636 239.605L190.104 240.963C195.106 235.556 197.597 228.883 197.597 221.012H195.597ZM188.636 239.605C184.016 244.598 178.179 247.095 171.047 247.095V249.095C178.709 249.095 185.087 246.385 190.104 240.963L188.636 239.605ZM171.047 247.095C163.864 247.095 158.003 244.596 153.385 239.605L151.917 240.963C156.934 246.386 163.337 249.095 171.047 249.095V247.095ZM153.385 239.605C148.751 234.597 146.424 228.422 146.424 221.012H144.424C144.424 228.883 146.914 235.556 151.917 240.963L153.385 239.605ZM146.424 221.012C146.424 213.296 148.736 207.03 153.309 202.13L151.847 200.766C146.881 206.086 144.424 212.863 144.424 221.012H146.424ZM153.308 202.131C157.925 197.188 163.81 194.71 171.047 194.71V192.71C163.294 192.71 156.867 195.391 151.847 200.765L153.308 202.131ZM171.047 194.71C178.283 194.71 184.142 197.188 188.708 202.127L190.177 200.769C185.205 195.391 178.799 192.71 171.047 192.71V194.71ZM188.712 202.13C193.284 207.03 195.597 213.296 195.597 221.012H197.597C197.597 212.863 195.139 206.086 190.174 200.766L188.712 202.13ZM259.033 247V248H260.033V247H259.033ZM252.244 247H251.244V248H252.244V247ZM252.244 224.151H253.244V223.855L253.083 223.606L252.244 224.151ZM233.118 194.732V193.732H231.275L232.28 195.277L233.118 194.732ZM241.148 194.732L242 194.208L241.707 193.732H241.148V194.732ZM255.602 218.238L254.75 218.762L255.604 220.151L256.455 218.76L255.602 218.238ZM269.983 194.732V193.732H269.423L269.13 194.21L269.983 194.732ZM277.94 194.732L278.781 195.274L279.774 193.732H277.94V194.732ZM259.033 224.078L258.193 223.536L258.033 223.784V224.078H259.033ZM259.033 246H252.244V248H259.033V246ZM253.244 247V224.151H251.244V247H253.244ZM253.083 223.606L233.957 194.187L232.28 195.277L251.406 224.696L253.083 223.606ZM233.118 195.732H241.148V193.732H233.118V195.732ZM240.296 195.256L254.75 218.762L256.454 217.714L242 194.208L240.296 195.256ZM256.455 218.76L270.836 195.254L269.13 194.21L254.749 217.716L256.455 218.76ZM269.983 195.732H277.94V193.732H269.983V195.732ZM277.1 194.19L258.193 223.536L259.874 224.62L278.781 195.274L277.1 194.19ZM258.033 224.078V247H260.033V224.078H258.033ZM356.792 247V248H358.284L357.717 246.62L356.792 247ZM349.2 247L348.27 247.369L348.521 248H349.2V247ZM342.265 229.553L343.194 229.184L342.943 228.553H342.265V229.553ZM321.314 229.553V228.553H320.63L320.382 229.19L321.314 229.553ZM314.525 247V248H315.209L315.457 247.363L314.525 247ZM307.006 247L306.082 246.617L305.509 248H307.006V247ZM328.979 193.929V192.929H328.31L328.055 193.546L328.979 193.929ZM334.965 193.929L335.89 193.549L335.635 192.929H334.965V193.929ZM339.637 223.64V224.64H341.049L340.58 223.308L339.637 223.64ZM331.972 201.886L332.915 201.554L331.998 198.951L331.035 201.537L331.972 201.886ZM323.869 223.64L322.932 223.291L322.429 224.64H323.869V223.64ZM356.792 246H349.2V248H356.792V246ZM350.129 246.631L343.194 229.184L341.335 229.922L348.27 247.369L350.129 246.631ZM342.265 228.553H321.314V230.553H342.265V228.553ZM320.382 229.19L313.593 246.637L315.457 247.363L322.246 229.916L320.382 229.19ZM314.525 246H307.006V248H314.525V246ZM307.93 247.383L329.903 194.312L328.055 193.546L306.082 246.617L307.93 247.383ZM328.979 194.929H334.965V192.929H328.979V194.929ZM334.04 194.309L355.867 247.38L357.717 246.62L335.89 193.549L334.04 194.309ZM340.58 223.308L332.915 201.554L331.029 202.218L338.694 223.972L340.58 223.308ZM331.035 201.537L322.932 223.291L324.806 223.989L332.909 202.235L331.035 201.537ZM323.869 224.64H339.637V222.64H323.869V224.64Z" fill="#3B1500" mask="url(#path-3-outside-1_1448_117)"/>
<g filter="url(#filter0_d_1448_117)">
<path d="M17.5 215C17.5 105.924 105.924 17.5 215 17.5C324.076 17.5 412.5 105.924 412.5 215C412.5 324.076 324.076 412.5 215 412.5C105.924 412.5 17.5 324.076 17.5 215Z" stroke="#1D342F" stroke-width="5" shape-rendering="crispEdges"/>
</g>
<path d="M272.933 145.048C272.713 145.259 272.853 145.499 273.1 145.566C273.469 145.664 273.934 145.556 274.307 145.484C275.522 145.25 276.76 145.026 277.781 144.239C278.934 143.35 279.494 141.551 279.196 140.217C279.029 139.472 278.699 138.816 278.47 138.099C278.361 137.754 278.282 137.473 278.022 137.21C277.75 136.932 277.447 136.691 277.124 136.471C276.796 136.248 276.525 135.966 276.204 135.737C275.879 135.504 275.511 135.316 275.15 135.141C274.485 134.819 273.483 134.425 272.724 134.762C272.568 134.83 272.478 135.059 272.562 135.201C272.911 135.796 273.81 135.906 274.369 136.255C274.67 136.444 274.992 136.609 275.283 136.812C275.561 137.006 275.781 137.261 276.047 137.469C276.332 137.691 276.625 137.886 276.896 138.126C277.143 138.344 277.184 138.619 277.329 138.91C277.661 139.577 278.051 140.291 278.116 141.058C278.169 141.684 277.896 142.663 277.493 143.183C277.051 143.755 276.315 144.192 275.644 144.42C275.142 144.591 274.674 144.75 274.2 144.895C273.993 144.959 273.78 145.021 273.568 145.059C273.456 145.079 273.349 145.09 273.236 145.095C273.125 145.098 273.096 144.996 273.14 145.086C273.107 145.011 272.998 144.984 272.933 145.048Z" fill="#3F3F3F"/>
<path d="M275.802 135.913C276.054 136.583 276.606 136.388 277.165 136.131C277.488 135.982 277.732 135.94 278.012 135.702C278.343 135.42 278.701 135.173 279.032 134.892C279.694 134.333 279.942 133.749 280.259 132.974C280.591 132.159 280.956 131.333 280.968 130.455C280.978 129.643 280.76 128.91 280.438 128.188C280.126 127.487 279.774 126.748 279.241 126.191C278.676 125.6 277.865 125.233 277.085 124.981C276.855 124.907 276.62 124.861 276.386 124.796C276.144 124.728 276.131 124.687 276.01 124.605C275.677 124.378 275.432 124.427 275.032 124.482C274.67 124.531 274.649 124.994 274.873 125.176C275.055 125.323 275.162 125.521 275.341 125.662C275.605 125.87 275.984 125.963 276.302 126.068C276.934 126.279 277.6 126.474 278.129 126.883C278.597 127.246 278.891 127.822 279.15 128.345C279.412 128.87 279.671 129.41 279.759 130.003C279.859 130.663 279.696 131.262 279.482 131.897C279.287 132.473 279.166 133.206 278.841 133.728C278.508 134.264 277.894 134.588 277.483 135.058C277.275 135.299 277.044 135.381 276.795 135.567C276.5 135.789 276.319 135.847 275.987 135.708C275.863 135.653 275.763 135.808 275.802 135.913Z" fill="#3F3F3F"/>
<path d="M259.891 141.97C260.162 142.246 260.278 142.623 260.578 142.874C260.938 143.176 261.395 143.414 261.813 143.632C262.732 144.109 263.592 144.699 264.476 145.233C264.875 145.474 265.273 145.656 265.711 145.824C266.302 146.048 266.814 146.312 267.36 146.62C268.166 147.074 269.223 147.573 270.172 147.617C270.458 147.63 270.608 147.23 270.37 147.078C269.587 146.583 268.485 146.47 267.613 146.137C266.624 145.759 265.756 145.048 264.818 144.557C263.975 144.117 263.029 143.732 262.27 143.166C261.875 142.871 261.415 142.614 261.047 142.292C260.774 142.053 260.592 141.741 260.292 141.527C260.031 141.34 259.662 141.738 259.891 141.97Z" fill="#3F3F3F"/>
<path d="M231.134 104.264C232.457 104.704 233.816 104.999 235.19 105.233C236.559 105.466 237.962 105.746 239.347 105.852C240.598 105.948 241.946 105.994 243.135 105.544C244.122 105.171 245.325 104.77 245.96 103.874C247.359 101.899 245.846 99.5849 244.119 98.4583C243.148 97.8257 241.965 97.6667 240.831 97.6138C239.457 97.5502 238.02 97.4816 236.655 97.6988C235.317 97.912 233.732 98.4786 232.742 99.4222C232.211 99.9285 231.829 100.514 231.501 101.166C231.32 101.525 231.148 101.881 230.939 102.225C230.824 102.414 230.743 102.543 230.726 102.769C230.708 103.024 231.075 103.038 231.114 102.795C231.172 102.435 231.631 101.981 231.82 101.669C232.145 101.132 232.475 100.61 232.945 100.186C233.86 99.3586 234.946 98.8931 236.121 98.5479C237.327 98.1939 238.652 98.2393 239.898 98.2635C240.919 98.2838 241.997 98.2711 242.987 98.5478C245.054 99.1263 247.159 101.711 245.468 103.725C244.841 104.473 243.622 104.858 242.72 105.17C241.604 105.555 240.227 105.548 239.057 105.446C236.425 105.215 233.535 104.493 230.996 103.742C230.926 103.723 231.067 104.242 231.134 104.264Z" fill="#3F3F3F"/>
<path d="M230.998 103.742C231.227 104.911 234.291 104.842 235.548 105.139C236.801 105.434 238.208 105.671 239.468 105.85C240.607 106.013 241.554 105.687 242.604 105.342C243.475 105.056 245.196 104.311 245.718 103.522C246.869 101.785 245.505 99.8735 243.875 98.7341C242.959 98.0942 241.498 98.1777 240.468 98.0622C239.219 97.9226 237.773 98.0618 236.55 98.1815C235.351 98.299 233.949 98.7276 233.108 99.5384C232.657 99.9735 232.346 100.49 232.087 101.071C231.944 101.392 231.81 101.71 231.641 102.014C231.548 102.181 231.482 102.295 231.48 102.503C231.478 102.736 231.811 102.771 231.833 102.549C231.864 102.221 232.253 101.83 232.406 101.554C232.668 101.078 232.937 100.617 233.337 100.254C234.117 99.5457 235.073 99.1809 236.116 98.9321C237.188 98.6771 238.391 98.797 239.52 98.8927C240.446 98.9715 241.421 99.0233 242.334 99.3365C244.24 99.9912 246.298 102.496 244.886 104.251C244.362 104.903 243.014 104.664 242.215 104.898C241.227 105.187 236.688 104.562 235.622 104.398C233.225 104.03 238.728 105.356 236.385 104.514C236.321 104.493 230.937 103.718 230.998 103.742Z" fill="#3F3F3F"/>
<path d="M230.998 103.742C231.227 104.911 234.291 104.842 235.548 105.139C236.801 105.434 238.208 105.671 239.468 105.85C240.607 106.013 241.554 105.687 242.604 105.342C243.475 105.056 245.196 104.311 245.718 103.522C246.869 101.785 245.505 99.8735 243.875 98.7341C242.959 98.0942 241.498 98.1777 240.468 98.0622C239.219 97.9226 237.773 98.0618 236.55 98.1815C235.351 98.299 233.949 98.7276 233.108 99.5384C232.657 99.9735 232.346 100.49 232.087 101.071C231.944 101.392 231.81 101.71 231.641 102.014C231.548 102.181 231.482 102.295 231.48 102.503C231.478 102.736 231.811 102.771 231.833 102.549C231.864 102.221 232.253 101.83 232.406 101.554C232.668 101.078 232.937 100.617 233.337 100.254C234.117 99.5457 235.073 99.1809 236.116 98.9321C237.188 98.6771 238.391 98.797 239.52 98.8927C240.446 98.9715 241.421 99.0233 242.334 99.3365C244.24 99.9912 246.298 102.496 244.886 104.251C244.362 104.903 243.014 104.664 242.215 104.898C241.227 105.187 236.688 104.562 235.622 104.398C233.225 104.03 238.728 105.356 236.385 104.514C236.321 104.493 230.937 103.718 230.998 103.742Z" fill="#3F3F3F"/>
<path d="M230.998 103.742C231.227 104.911 234.291 104.842 235.548 105.139C236.801 105.434 238.208 105.671 239.468 105.85C240.607 106.013 241.554 105.687 242.604 105.342C243.475 105.056 245.196 104.311 245.718 103.522C246.869 101.785 245.505 99.8735 243.875 98.7341C242.959 98.0942 241.498 98.1777 240.468 98.0622C239.219 97.9226 237.773 98.0618 236.55 98.1815C235.351 98.299 233.949 98.7276 233.108 99.5384C232.657 99.9735 232.346 100.49 232.087 101.071C231.944 101.392 231.81 101.71 231.641 102.014C231.548 102.181 231.482 102.295 231.48 102.503C231.478 102.736 231.811 102.771 231.833 102.549C231.864 102.221 232.253 101.83 232.406 101.554C232.668 101.078 232.937 100.617 233.337 100.254C234.117 99.5457 235.073 99.1809 236.116 98.9321C237.188 98.6771 238.391 98.797 239.52 98.8927C240.446 98.9715 241.421 99.0233 242.334 99.3365C244.24 99.9912 246.298 102.496 244.886 104.251C244.362 104.903 243.014 104.664 242.215 104.898C241.227 105.187 236.688 104.562 235.622 104.398C233.225 104.03 238.728 105.356 236.385 104.514C236.321 104.493 230.937 103.718 230.998 103.742Z" fill="#3F3F3F"/>
<path d="M230.998 103.742C231.227 104.911 234.291 104.842 235.548 105.139C236.801 105.434 238.208 105.671 239.468 105.85C240.607 106.013 241.554 105.687 242.604 105.342C243.475 105.056 245.196 104.311 245.718 103.522C246.869 101.785 245.505 99.8735 243.875 98.7341C242.959 98.0942 241.498 98.1777 240.468 98.0622C239.219 97.9226 237.773 98.0618 236.55 98.1815C235.351 98.299 233.949 98.7276 233.108 99.5384C232.657 99.9735 232.346 100.49 232.087 101.071C231.944 101.392 231.81 101.71 231.641 102.014C231.548 102.181 231.482 102.295 231.48 102.503C231.478 102.736 231.811 102.771 231.833 102.549C231.864 102.221 232.253 101.83 232.406 101.554C232.668 101.078 232.937 100.617 233.337 100.254C234.117 99.5457 235.073 99.1809 236.116 98.9321C237.188 98.6771 238.391 98.797 239.52 98.8927C240.446 98.9715 241.421 99.0233 242.334 99.3365C244.24 99.9912 246.298 102.496 244.886 104.251C244.362 104.903 243.014 104.664 242.215 104.898C241.227 105.187 236.688 104.562 235.622 104.398C233.225 104.03 238.728 105.356 236.385 104.514C236.321 104.493 230.937 103.718 230.998 103.742Z" fill="#3F3F3F"/>
<path d="M230.998 103.742C231.227 104.911 234.291 104.842 235.548 105.139C236.801 105.434 238.208 105.671 239.468 105.85C240.607 106.013 241.554 105.687 242.604 105.342C243.475 105.056 245.196 104.311 245.718 103.522C246.869 101.785 245.505 99.8735 243.875 98.7341C242.959 98.0942 241.498 98.1777 240.468 98.0622C239.219 97.9226 237.773 98.0618 236.55 98.1815C235.351 98.299 233.949 98.7276 233.108 99.5384C232.657 99.9735 232.346 100.49 232.087 101.071C231.944 101.392 231.81 101.71 231.641 102.014C231.548 102.181 231.482 102.295 231.48 102.503C231.478 102.736 231.811 102.771 231.833 102.549C231.864 102.221 232.253 101.83 232.406 101.554C232.668 101.078 232.937 100.617 233.337 100.254C234.117 99.5457 235.073 99.1809 236.116 98.9321C237.188 98.6771 238.391 98.797 239.52 98.8927C240.446 98.9715 241.421 99.0233 242.334 99.3365C244.24 99.9912 246.298 102.496 244.886 104.251C244.362 104.903 243.014 104.664 242.215 104.898C241.227 105.187 236.688 104.562 235.622 104.398C233.225 104.03 238.728 105.356 236.385 104.514C236.321 104.493 230.937 103.718 230.998 103.742Z" fill="#3F3F3F"/>
<path d="M239.073 101.413C237.628 101.464 236.209 101.389 234.793 101.746C234.094 101.923 233.387 102.129 232.72 102.406C232.386 102.545 232.061 102.703 231.715 102.813C231.416 102.908 231.115 102.945 230.826 103.07C230.688 103.129 230.722 103.32 230.846 103.37C231.391 103.589 232.049 103.277 232.56 103.069C233.287 102.773 234.022 102.494 234.772 102.265C236.193 101.832 237.628 101.843 239.094 101.734C239.276 101.721 239.257 101.408 239.073 101.413Z" fill="#3F3F3F"/>
<path d="M235.8 103.082C234.951 103.091 234.097 102.977 233.258 103.162C233.088 103.199 232.919 103.237 232.746 103.257C232.564 103.277 232.382 103.262 232.199 103.263C231.823 103.264 231.396 103.269 231.133 103.572C230.995 103.731 231.223 103.917 231.38 103.855C231.722 103.718 232.067 103.793 232.423 103.774C232.775 103.756 233.094 103.665 233.431 103.57C234.206 103.353 235.022 103.407 235.816 103.34C235.963 103.327 235.947 103.081 235.8 103.082Z" fill="#3F3F3F"/>
<path d="M210.041 114.492C211.784 114.254 213.177 113.506 214.547 112.562C216.163 111.449 217.824 110.392 219.441 109.28C221.154 108.101 222.897 106.985 224.795 106.056C226.726 105.112 228.745 104.319 230.76 103.527C231.202 103.353 230.943 102.687 230.496 102.863C228.562 103.623 226.627 104.385 224.763 105.273C222.923 106.15 221.211 107.185 219.553 108.315C217.952 109.407 216.311 110.455 214.716 111.554C213.258 112.559 211.851 113.538 209.971 113.795C209.491 113.861 209.555 114.558 210.041 114.492Z" fill="#363636"/>
<path d="M163.994 118.355C164.999 119.028 166.243 119.247 167.629 119.345C169.266 119.459 170.878 119.627 172.514 119.743C174.247 119.865 175.946 120.037 177.568 120.388C179.219 120.744 180.791 121.229 182.36 121.711C182.705 121.817 183.109 121.317 182.76 121.21C181.254 120.747 179.745 120.284 178.171 119.926C176.616 119.572 174.997 119.369 173.328 119.244C171.715 119.124 170.119 118.961 168.504 118.848C167.028 118.745 165.595 118.651 164.511 117.925C164.234 117.74 163.714 118.168 163.994 118.355Z" fill="#363636"/>
<path d="M281.157 109.791C279.674 109.286 278.356 108.766 276.735 108.88C274.866 109.013 272.929 109.328 271.091 109.756C268.074 110.458 265.449 111.522 262.876 113.273C257.477 116.943 253.227 121.592 251.336 127.873C250.861 129.448 250.876 130.754 250.864 132.37C250.851 134.061 251.41 135.256 251.846 136.825C252.207 138.129 252.752 139.326 253.427 140.505C254.237 141.923 254.953 143.562 255.922 144.868C256.891 146.173 258.203 146.96 259.404 148.005C260.561 149.009 261.804 149.955 263.154 150.707C265.251 151.874 267.829 152.89 270.243 153.27C272.953 153.697 275.756 152.275 275.802 149.248C275.848 146.173 273.165 144.404 270.699 143.244C270.23 143.024 269.849 143.802 270.266 144.072C272.359 145.43 276.115 147.251 274.609 150.498C273.098 153.754 268.873 151.783 266.689 150.865C264.39 149.898 262.188 148.888 260.307 147.222C259.51 146.515 258.595 145.962 257.835 145.228C256.744 144.175 256.111 142.927 255.338 141.637C254.054 139.492 252.97 137.41 252.464 134.919C251.931 132.299 252.446 129.346 253.351 126.8C255.14 121.76 258.341 117.868 262.559 114.572C264.977 112.682 267.624 111.527 270.553 110.748C272.068 110.344 273.616 110.069 275.154 109.806C277.327 109.434 278.954 109.681 280.976 110.284C281.292 110.378 281.469 109.897 281.157 109.791Z" fill="#3F3F3F"/>
<path d="M277.361 125.594C278.47 126.09 280.003 125.828 280.977 125.001C281.485 124.571 281.807 124.007 282.054 123.408C282.312 122.783 282.653 122.153 282.639 121.474C282.624 120.814 282.501 120.054 282.227 119.46C281.933 118.821 281.49 118.271 281.143 117.665C280.777 117.024 280.048 116.639 279.378 116.358C278.698 116.073 277.921 115.783 277.16 115.887C276.835 115.931 276.656 116.41 276.887 116.628C277.343 117.059 277.924 117.177 278.503 117.403C279.004 117.598 279.706 117.82 280.045 118.252C280.206 118.457 280.316 118.71 280.474 118.922C280.641 119.144 280.818 119.357 280.965 119.595C281.277 120.097 281.378 120.568 281.494 121.147C281.613 121.735 281.491 122.143 281.269 122.712C281.075 123.209 280.927 123.711 280.568 124.129C280.179 124.582 279.658 124.857 279.098 125.018C278.53 125.182 278.078 125.331 277.495 125.231C277.255 125.189 277.136 125.495 277.361 125.594Z" fill="#3F3F3F"/>
<path d="M279.956 116.621C280.258 117.803 281.964 116.753 282.585 116.33C284.132 115.275 284.793 113.076 283.815 111.555C283.339 110.815 283.032 110.139 282.12 109.865C281.139 109.571 280.062 109.387 279.029 109.324C278.038 109.264 277.026 109.389 276.038 109.546C274.911 109.725 273.782 109.758 272.687 110.133C272.506 110.194 272.48 110.492 272.702 110.488C274.322 110.449 275.923 110.394 277.537 110.458C278.347 110.489 279.049 110.753 279.833 110.872C280.205 110.929 280.547 111.009 280.905 111.12C281.224 111.219 281.592 111.266 281.865 111.46C282.089 111.62 282.212 111.87 282.362 112.094C282.503 112.307 282.701 112.502 282.796 112.743C283.061 113.409 282.854 114.212 282.447 114.81C282.273 115.065 280.639 116.8 280.352 116.418C280.226 116.246 279.903 116.408 279.956 116.621Z" fill="#3F3F3F"/>
<path d="M275.015 115.948C273.864 115.462 272.699 115.256 271.429 115.2C270.806 115.173 270.186 115.254 269.569 115.188C269.307 115.16 269.063 115.13 268.797 115.196C268.534 115.262 268.335 115.367 268.055 115.352C267.099 115.297 265.997 115.498 265.075 115.863C264.499 116.091 263.898 116.309 263.339 116.582C262.795 116.849 262.076 117.098 261.639 117.526C261.362 117.8 261.562 118.222 261.94 118.162C262.452 118.081 262.951 117.741 263.413 117.499C263.95 117.218 264.505 117.019 265.051 116.766C265.56 116.529 266.049 116.422 266.587 116.297C266.824 116.242 267.055 116.156 267.291 116.106C267.603 116.039 267.861 116.116 268.169 116.111C268.348 116.109 268.517 116.064 268.686 116.001C268.982 115.892 269.192 115.864 269.508 115.884C270.068 115.921 270.612 115.836 271.174 115.831C272.451 115.822 273.658 116.035 274.889 116.291C275.115 116.339 275.227 116.038 275.015 115.948Z" fill="#3F3F3F"/>
<path d="M259.817 118.604C259.391 118.865 259.068 119.18 258.72 119.54C258.28 119.999 257.809 120.314 257.337 120.727C256.576 121.396 255.835 122.141 255.158 122.889C254.354 123.778 253.599 124.452 253.07 125.555C252.562 126.613 252.241 127.893 252.203 129.045C252.133 131.205 252.965 133.432 253.866 135.317C254.315 136.253 254.804 137.177 255.442 137.994C256.164 138.918 257.186 139.568 258.1 140.29C258.249 140.407 258.45 140.173 258.331 140.035C256.99 138.493 255.697 137.102 254.825 135.217C253.99 133.417 253.191 131.303 253.239 129.251C253.264 128.145 253.538 126.973 254.038 125.954C254.512 124.987 255.251 124.368 255.936 123.567C256.514 122.891 257.146 122.258 257.761 121.605C258.411 120.915 259.427 119.967 260.287 119.6C260.975 119.306 260.453 118.215 259.817 118.604Z" fill="#3F3F3F"/>
<path d="M273.456 121.322C272.885 121.028 272.312 120.735 271.734 120.453C271.148 120.167 270.54 119.9 269.86 119.931C269.288 119.956 268.71 120.062 268.14 120.145C267.885 120.182 267.627 120.245 267.383 120.339C267.104 120.446 266.961 120.631 266.832 120.891C266.743 121.068 266.909 121.266 267.081 121.27C267.488 121.28 267.906 121.274 268.317 121.24C268.838 121.197 269.348 121.048 269.87 121.032C271.08 120.996 272.108 121.394 273.191 121.826C273.478 121.941 273.734 121.465 273.456 121.322Z" fill="#3F3F3F"/>
<path d="M265.002 121.217C264.749 121.296 264.494 121.362 264.237 121.419C263.984 121.473 263.73 121.514 263.48 121.59C263.278 121.651 263.058 121.613 262.861 121.719C262.784 121.76 262.722 121.821 262.656 121.877C262.607 121.919 262.587 121.929 262.507 121.936C262.39 121.947 262.287 122.082 262.38 122.181C262.53 122.343 262.731 122.294 262.915 122.194C262.997 122.149 263.002 122.139 263.092 122.147C263.211 122.158 263.326 122.191 263.447 122.189C263.731 122.184 264.009 122.124 264.287 122.061C264.563 121.997 264.838 121.922 265.109 121.833C265.273 121.778 265.398 121.632 265.367 121.454C265.341 121.298 265.168 121.164 265.002 121.217Z" fill="#3F3F3F"/>
<path d="M261.281 122.241C260.127 122.802 258.899 123.216 257.724 123.731C257.233 123.946 256.771 124.26 256.323 124.556C256.087 124.712 255.878 124.9 255.647 125.063C255.394 125.243 255.104 125.366 254.833 125.515C254.06 125.942 252.69 126.782 253.055 127.816C253.191 128.2 253.509 128.496 253.76 128.807C254.045 129.16 254.407 129.583 254.894 129.636C255.099 129.657 255.195 129.398 255.089 129.259C254.835 128.926 254.691 128.552 254.471 128.198C254.348 128.002 253.961 127.648 254.011 127.389C254.079 127.033 254.682 126.651 254.958 126.462C255.357 126.188 255.797 125.982 256.176 125.677C256.921 125.08 257.66 124.411 258.516 123.988C259.011 123.742 259.493 123.464 259.992 123.234C260.473 123.01 260.969 122.83 261.44 122.581C261.664 122.46 261.509 122.129 261.281 122.241Z" fill="#3F3F3F"/>
<path d="M256.56 130.993C257.379 131.85 258.539 132.385 259.602 132.902C260.68 133.427 261.765 133.921 262.912 134.308C264.109 134.715 265.395 135.171 266.655 135.375C267.814 135.562 269.024 135.464 270.193 135.621C270.395 135.649 270.523 135.317 270.338 135.227C269.373 134.764 268.26 134.975 267.203 134.897C265.9 134.803 264.71 134.208 263.501 133.8C262.383 133.421 261.285 132.969 260.247 132.435C259.693 132.151 259.152 131.84 258.594 131.563C258.003 131.269 257.402 131.049 256.883 130.634C256.68 130.472 256.381 130.806 256.56 130.993Z" fill="#3F3F3F"/>
<path d="M272.005 128.724C271.67 128.638 271.326 128.588 270.989 128.513C270.689 128.445 270.413 128.329 270.123 128.233C269.513 128.034 268.826 128.083 268.19 127.979C267.505 127.867 266.858 127.869 266.16 127.896C265.835 127.909 265.538 127.896 265.217 127.874C264.879 127.853 264.637 127.981 264.342 128.146C264.21 128.22 264.197 128.435 264.354 128.478C264.938 128.631 265.508 128.817 266.131 128.756C266.789 128.692 267.403 128.645 268.056 128.708C268.366 128.738 268.664 128.778 268.979 128.771C269.3 128.763 269.597 128.748 269.907 128.825C270.187 128.894 270.452 128.991 270.74 129.04C271.102 129.102 271.471 129.128 271.833 129.197C272.133 129.254 272.316 128.804 272.005 128.724Z" fill="#3F3F3F"/>
<path d="M262.217 127.863C261.449 127.67 260.649 127.641 259.872 127.489C259.156 127.35 258.454 127.163 257.739 127.024C257.004 126.881 256.293 126.687 255.546 126.572C255.179 126.515 254.823 126.496 254.449 126.492C254.051 126.487 253.662 126.432 253.264 126.527C253.02 126.585 252.865 126.919 253.052 127.102C253.575 127.615 254.427 127.58 255.139 127.594C255.544 127.603 255.962 127.621 256.365 127.664C256.736 127.701 257.092 127.818 257.465 127.862C258.219 127.95 258.954 128.13 259.706 128.221C260.5 128.318 261.313 128.239 262.106 128.349C262.383 128.385 262.484 127.93 262.217 127.863Z" fill="#3F3F3F"/>
<path d="M251.3 127.694C251.107 127.681 250.911 127.701 250.719 127.674C250.792 127.687 250.864 127.698 250.937 127.711C250.89 127.702 250.844 127.691 250.8 127.674C250.867 127.706 250.936 127.738 251.003 127.77C250.983 127.759 250.965 127.746 250.948 127.73C251.004 127.779 251.06 127.828 251.115 127.877C251.09 127.852 251.069 127.829 251.05 127.801C251.091 127.865 251.133 127.929 251.174 127.993C251.151 127.953 251.133 127.913 251.12 127.869C251.145 127.947 251.169 128.023 251.194 128.101C251.162 127.991 251.151 127.876 251.124 127.764C251.098 127.651 251.082 127.541 251.075 127.424C251.079 127.528 251.085 127.633 251.089 127.737C251.088 127.671 251.094 127.609 251.105 127.543C251.08 127.659 251.053 127.773 251.028 127.887C251.04 127.831 251.06 127.777 251.086 127.725C251.028 127.837 250.97 127.948 250.911 128.059C250.946 127.996 250.992 127.942 251.04 127.885C250.954 127.981 250.866 128.077 250.78 128.173C250.811 128.138 250.844 128.11 250.881 128.083C250.774 128.155 250.665 128.228 250.557 128.3C250.596 128.273 250.637 128.254 250.68 128.237C250.556 128.282 250.432 128.328 250.308 128.372C250.406 128.338 250.51 128.311 250.612 128.3C250.477 128.313 250.342 128.325 250.207 128.339C250.394 128.326 250.586 128.338 250.769 128.367C250.631 128.343 250.493 128.32 250.354 128.296C250.465 128.317 250.572 128.345 250.674 128.392C250.547 128.333 250.421 128.273 250.294 128.213C250.35 128.242 250.401 128.274 250.447 128.316C250.346 128.226 250.244 128.137 250.143 128.048C250.172 128.077 250.196 128.106 250.219 128.139C250.146 128.028 250.074 127.915 250.001 127.803C250.017 127.831 250.031 127.86 250.042 127.891C250.001 127.762 249.96 127.633 249.919 127.504C249.937 127.566 249.945 127.628 249.948 127.692C249.942 127.553 249.936 127.414 249.93 127.274C249.933 127.391 249.922 127.506 249.897 127.622C249.93 127.477 249.962 127.333 249.995 127.189C249.977 127.256 249.956 127.321 249.926 127.385C249.996 127.251 250.065 127.118 250.135 126.984C250.114 127.022 250.092 127.055 250.064 127.086C250.162 126.977 250.262 126.868 250.36 126.758C250.347 126.77 250.335 126.781 250.32 126.79C250.44 126.709 250.56 126.628 250.682 126.548C250.634 126.577 250.584 126.6 250.531 126.619C250.667 126.57 250.804 126.52 250.939 126.471C250.796 126.522 250.65 126.555 250.5 126.569C250.645 126.555 250.792 126.541 250.937 126.526C250.872 126.532 250.807 126.534 250.742 126.524C250.89 126.549 251.037 126.574 251.185 126.599C251.163 126.594 251.145 126.588 251.124 126.579C251.258 126.643 251.392 126.706 251.525 126.77C251.49 126.753 251.461 126.734 251.43 126.71C251.537 126.804 251.644 126.897 251.75 126.992C251.714 126.958 251.682 126.922 251.652 126.88C251.728 126.998 251.806 127.116 251.882 127.234C251.834 127.16 251.799 127.082 251.771 126.999C251.814 127.135 251.857 127.271 251.901 127.406C251.869 127.301 251.849 127.194 251.842 127.083C251.848 127.23 251.855 127.377 251.86 127.525C251.857 127.432 251.867 127.345 251.887 127.254C251.853 127.406 251.818 127.557 251.785 127.71C251.814 127.592 251.857 127.481 251.909 127.371C251.837 127.512 251.762 127.653 251.689 127.793C251.728 127.718 251.773 127.649 251.829 127.583C251.725 127.698 251.622 127.812 251.518 127.927C251.558 127.883 251.599 127.845 251.648 127.81C251.522 127.895 251.394 127.979 251.268 128.064C251.336 128.02 251.404 127.984 251.479 127.954C251.337 128.006 251.194 128.058 251.052 128.109C251.124 128.083 251.195 128.067 251.27 128.059C251.119 128.073 250.968 128.089 250.817 128.103C250.868 128.1 250.915 128.101 250.963 128.109C250.811 128.082 250.659 128.057 250.506 128.031C250.543 128.038 250.577 128.049 250.611 128.062C250.473 127.997 250.336 127.931 250.197 127.866C250.23 127.884 250.259 127.901 250.288 127.926C250.178 127.829 250.068 127.733 249.958 127.636C249.978 127.657 249.996 127.677 250.013 127.7C249.935 127.579 249.857 127.457 249.777 127.336C249.799 127.372 249.816 127.407 249.83 127.448C249.786 127.309 249.742 127.169 249.698 127.031C249.714 127.086 249.724 127.142 249.726 127.2C249.719 127.051 249.713 126.901 249.706 126.752C249.707 126.799 249.702 126.847 249.693 126.894C249.727 126.74 249.762 126.588 249.797 126.434C249.785 126.486 249.767 126.535 249.744 126.583C249.817 126.442 249.892 126.301 249.965 126.161C249.935 126.214 249.902 126.262 249.861 126.308C249.965 126.194 250.068 126.079 250.173 125.963C250.131 126.007 250.084 126.047 250.034 126.082C250.162 125.998 250.288 125.912 250.415 125.827C250.357 125.866 250.294 125.895 250.23 125.921C250.373 125.868 250.517 125.816 250.659 125.765C250.586 125.791 250.513 125.808 250.437 125.817C250.59 125.802 250.743 125.787 250.895 125.772C250.822 125.779 250.751 125.777 250.679 125.765C250.833 125.791 250.987 125.818 251.143 125.844C251.096 125.835 251.05 125.821 251.006 125.802C251.147 125.87 251.287 125.935 251.427 126.002C251.384 125.981 251.346 125.958 251.311 125.927C251.423 126.025 251.535 126.125 251.647 126.223C251.618 126.195 251.592 126.166 251.569 126.131C251.65 126.255 251.73 126.379 251.812 126.504C251.788 126.466 251.771 126.428 251.759 126.385C251.804 126.527 251.849 126.67 251.895 126.812C251.881 126.764 251.875 126.717 251.872 126.667C251.879 126.821 251.884 126.974 251.892 127.127C251.89 127.036 251.9 126.946 251.919 126.856C251.884 127.014 251.848 127.173 251.813 127.331C251.838 127.223 251.876 127.119 251.926 127.019C251.85 127.165 251.773 127.311 251.697 127.458C251.743 127.369 251.799 127.287 251.865 127.211C251.757 127.331 251.648 127.451 251.541 127.57C251.593 127.512 251.65 127.462 251.714 127.417C251.581 127.506 251.449 127.596 251.316 127.684C251.365 127.652 251.415 127.628 251.469 127.608C251.319 127.662 251.17 127.717 251.02 127.77C251.067 127.755 251.112 127.744 251.16 127.74C251.001 127.756 250.842 127.77 250.683 127.786C250.725 127.783 250.763 127.784 250.804 127.791C250.644 127.763 250.482 127.737 250.321 127.709C250.372 127.72 250.42 127.737 250.467 127.759C250.32 127.69 250.173 127.62 250.026 127.551C250.088 127.583 250.143 127.622 250.195 127.667C250.077 127.562 249.958 127.459 249.84 127.355C249.885 127.396 249.925 127.44 249.959 127.49C249.873 127.358 249.789 127.227 249.703 127.094C249.732 127.139 249.755 127.187 249.773 127.238C249.725 127.085 249.676 126.934 249.628 126.782C249.643 126.831 249.652 126.879 249.654 126.93C249.647 126.765 249.64 126.601 249.633 126.435C249.635 126.495 249.628 126.553 249.616 126.612C249.654 126.442 249.693 126.271 249.732 126.102C249.711 126.19 249.678 126.271 249.637 126.352C249.719 126.194 249.803 126.035 249.885 125.877C249.867 125.91 249.847 125.941 249.829 125.972C249.552 126.433 249.371 126.951 249.484 127.479C249.499 127.567 249.526 127.651 249.562 127.734C249.617 127.977 249.731 128.192 249.902 128.376C249.909 128.387 249.917 128.396 249.923 128.406C249.84 128.276 249.755 128.148 249.672 128.019C249.761 128.159 249.836 128.317 249.943 128.44C249.949 128.447 250.258 128.72 250.266 128.727C250.278 128.734 250.664 128.916 250.675 128.919C250.822 128.966 251.013 128.984 251.168 129.003C251.194 129.005 251.219 129.009 251.244 129.01C251.27 129.01 251.732 128.965 251.759 128.961C251.228 129.059 252.127 128.851 252.259 128.778C252.33 128.73 252.402 128.681 252.475 128.634C252.633 128.553 252.764 128.44 252.866 128.294C253.003 128.174 253.104 128.03 253.167 127.86C253.222 127.78 253.265 127.696 253.297 127.607C253.319 127.551 253.337 127.494 253.351 127.435C253.407 127.218 253.478 126.989 253.492 126.764C253.506 126.558 253.49 126.343 253.469 126.14C253.465 126.11 253.46 126.083 253.453 126.055C253.412 125.886 253.354 125.698 253.288 125.538C253.278 125.515 253.269 125.492 253.257 125.47C253.173 125.317 253.069 125.155 252.964 125.017C252.838 124.853 252.663 124.719 252.502 124.592C252.449 124.549 252.393 124.514 252.333 124.484C252.142 124.385 251.943 124.27 251.729 124.218C251.562 124.179 251.365 124.142 251.191 124.128C251.162 124.126 251.133 124.124 251.103 124.124C251.078 124.125 251.053 124.128 251.029 124.128C250.85 124.141 250.658 124.145 250.481 124.188C250.458 124.194 250.435 124.202 250.412 124.209C250.252 124.262 250.072 124.316 249.92 124.391C249.736 124.483 249.558 124.609 249.396 124.735C249.291 124.816 249.208 124.921 249.12 125.018C249.032 125.115 248.934 125.213 248.86 125.323C248.739 125.501 248.647 125.701 248.555 125.891C248.526 125.949 248.5 126.008 248.48 126.069C248.259 126.738 248.242 127.413 248.504 128.047C248.652 128.406 248.91 128.672 249.212 128.902C249.307 128.974 249.41 129.013 249.524 129.065C249.639 129.12 249.737 129.177 249.86 129.205C250.294 129.306 250.569 129.311 251.019 129.246C251.068 129.239 251.115 129.229 251.163 129.216C251.351 129.162 251.543 129.093 251.722 129.011C251.768 128.99 251.811 128.965 251.854 128.937C252.015 128.834 252.191 128.732 252.337 128.605C252.483 128.477 252.617 128.321 252.736 128.17C252.817 128.069 252.867 127.951 252.926 127.837C252.988 127.72 253.05 127.621 253.085 127.499C253.138 127.311 253.195 127.107 253.205 126.911C253.214 126.72 253.212 126.514 253.173 126.325C253.14 126.161 253.083 125.993 253.023 125.841C253.007 125.802 252.989 125.766 252.968 125.729C252.887 125.592 252.801 125.441 252.695 125.322C252.646 125.266 252.517 125.164 252.509 125.157C252.477 125.129 252.379 125.031 252.312 124.987C252.229 124.934 252.133 124.896 252.046 124.855C251.946 124.807 251.864 124.759 251.761 124.731C251.569 124.679 251.352 124.635 251.144 124.643C250.936 124.65 250.711 124.662 250.506 124.724C250.31 124.783 250.094 124.851 249.91 124.952C249.758 125.035 249.614 125.142 249.472 125.242C249.439 125.266 249.407 125.289 249.377 125.316C249.22 125.462 249.063 125.628 248.942 125.808C248.921 125.837 248.904 125.869 248.886 125.9C248.792 126.068 248.691 126.243 248.619 126.42C248.591 126.487 248.573 126.559 248.556 126.628C248.513 126.812 248.435 127.069 248.425 127.281C248.407 127.657 248.454 127.952 248.562 128.292C248.67 128.63 248.796 128.905 249.029 129.185C249.051 129.212 249.076 129.235 249.103 129.259C249.218 129.366 249.336 129.491 249.47 129.575C249.606 129.661 249.772 129.737 249.922 129.793C250.08 129.851 250.268 129.873 250.435 129.891C250.917 129.941 251.498 129.763 251.941 129.561C252.049 129.511 252.14 129.443 252.24 129.375C252.319 129.323 252.394 129.279 252.465 129.219C252.512 129.178 252.739 128.916 252.624 129.044C252.683 128.979 252.744 128.921 252.792 128.852C252.882 128.722 252.97 128.54 253.032 128.395C253.043 128.37 253.053 128.345 253.062 128.317C253.124 128.121 253.173 127.909 253.196 127.704C253.203 127.639 253.205 127.575 253.203 127.512C253.199 127.315 253.204 127.104 253.164 126.911C253.126 126.732 253.074 126.551 252.997 126.388C252.961 126.313 252.901 126.234 252.86 126.172C252.798 126.077 252.757 126.001 252.681 125.925C252.406 125.65 252.081 125.422 251.688 125.329C251.416 125.265 251.129 125.214 250.843 125.222C250.777 125.224 250.711 125.228 250.645 125.233C250.448 125.249 250.242 125.253 250.046 125.298C249.524 125.416 249.115 125.701 248.783 126.118C248.672 126.259 248.59 126.431 248.52 126.592C248.507 126.621 248.496 126.649 248.487 126.679C248.443 126.816 248.399 126.985 248.388 127.127C248.354 127.593 248.516 128.003 248.774 128.365C248.902 128.544 249.086 128.679 249.26 128.814C249.187 128.749 249.114 128.685 249.04 128.62C249.121 128.703 249.214 128.778 249.302 128.853C249.23 128.79 249.158 128.726 249.086 128.663C249.422 129.005 249.792 129.316 250.304 129.354C250.499 129.368 250.71 129.347 250.902 129.294C251.058 129.251 251.207 129.188 251.363 129.146C251.723 129.047 251.981 128.733 251.966 128.364C251.949 127.988 251.668 127.716 251.3 127.694Z" fill="#3F3F3F"/>
<path d="M136.862 133.67C144.293 128.596 152.073 124.054 160.161 120.113C167.752 116.413 175.731 112.676 184.199 111.344C199.837 108.885 214.277 118.679 229.191 122.746C238.01 125.152 247.073 126.24 256.046 126.007C257.03 125.982 257 124.392 256.012 124.418C247.755 124.632 239.433 123.734 231.288 121.68C223.566 119.732 216.262 116.477 208.785 113.638C201.622 110.92 194.174 108.811 186.652 109.447C178.265 110.156 170.425 113.563 162.937 117.015C153.563 121.335 144.579 126.449 136.058 132.269C135.258 132.815 136.056 134.22 136.862 133.67Z" fill="#363636"/>
<path d="M246.999 124.592C247.288 124.698 247.598 124.611 247.876 124.508C252.001 122.987 254.396 118.303 258.617 117.048C258.902 116.963 259.274 116.924 259.458 117.182C259.641 117.438 259.492 117.783 259.333 118.036C257.921 120.301 255.995 122.204 253.742 123.562C256.47 122.017 259.358 120.43 262.546 120.518C262.842 120.525 263.23 120.634 263.26 120.94C263.278 121.133 263.13 121.287 262.989 121.406C260.953 123.13 258.249 123.778 255.641 124.379C257.046 123.981 258.496 123.722 259.963 123.608C261.308 123.503 262.854 123.601 263.796 124.665C263.138 125.593 261.913 125.854 260.782 125.978C259.216 126.15 257.627 126.185 256.039 126.08C257.816 126.53 259.57 127.095 261.29 127.772C261.855 127.995 262.436 128.242 262.862 128.697C262.992 128.836 263.111 129.011 263.102 129.199C263.085 129.571 262.626 129.686 262.265 129.693C259.948 129.739 257.627 129.256 255.328 128.776C257.372 129.448 259.297 130.573 260.934 132.048C261.222 132.308 261.518 132.608 261.582 132.99C261.677 133.555 261.192 134.05 260.656 134.149C260.121 134.249 259.563 134.061 259.035 133.866C257.184 133.182 255.367 132.382 253.599 131.474C254.89 132.226 256.195 132.988 257.282 134.038C257.765 134.504 258.233 135.2 257.969 135.789C257.85 136.055 257.598 136.231 257.328 136.32C256.397 136.626 255.388 136.017 254.538 135.435C253.636 134.818 252.734 134.201 251.832 133.584C252.374 134.055 252.818 134.647 253.12 135.305C253.266 135.621 253.38 135.97 253.322 136.304C253.211 136.946 252.468 137.275 251.84 137.126C251.21 136.977 250.695 136.482 250.278 135.958C248.595 133.842 248.017 131.078 247.496 128.44C247.256 127.229 247.017 126.019 246.777 124.808" fill="#363636"/>
<path d="M246.821 125.352C248.354 125.673 249.981 124.439 251.104 123.576C252.587 122.438 253.882 121.076 255.316 119.878C256.02 119.288 256.77 118.751 257.585 118.33C257.83 118.204 258.08 118.09 258.338 117.992C258.456 117.947 258.957 117.886 258.743 117.722C258.559 117.581 258.505 117.857 258.384 118.04C258.206 118.309 258.019 118.571 257.823 118.827C256.579 120.451 255.063 121.798 253.339 122.86C252.513 123.37 253.294 124.742 254.144 124.261C255.487 123.502 256.84 122.735 258.28 122.168C258.974 121.894 259.689 121.67 260.422 121.515C260.651 121.467 262.506 121.087 262.604 121.315C262.573 121.113 262.542 120.912 262.512 120.71C262.444 121.109 261.344 121.592 261.022 121.77C260.424 122.098 259.796 122.367 259.152 122.596C257.942 123.024 256.681 123.312 255.428 123.603C255.57 124.12 255.713 124.637 255.855 125.153C257.199 124.784 258.578 124.506 259.981 124.402C261.106 124.32 262.383 124.307 263.273 125.214C263.261 124.839 263.248 124.464 263.235 124.089C262.403 125.111 260.999 125.183 259.758 125.275C258.519 125.366 257.273 125.36 256.025 125.285C255.162 125.233 254.996 126.617 255.862 126.841C256.971 127.127 258.074 127.448 259.165 127.819C259.709 128.004 260.252 128.2 260.791 128.407C261.057 128.51 261.325 128.61 261.583 128.736C261.693 128.782 261.799 128.838 261.9 128.904C262.014 129.017 262.13 129.014 262.251 128.898C261.198 128.817 260.162 128.831 259.106 128.684C257.901 128.515 256.705 128.262 255.509 128.013C254.542 127.811 254.181 129.205 255.152 129.536C256.213 129.899 257.233 130.363 258.204 130.957C258.672 131.243 261.205 132.815 260.58 133.314C260.022 133.761 258.012 132.646 257.432 132.405C256.257 131.917 255.104 131.376 253.965 130.796C253.071 130.341 252.343 131.631 253.239 132.153C254.033 132.616 254.833 133.077 255.585 133.618C255.941 133.875 258.041 135.329 256.8 135.607C256.116 135.76 255.144 134.92 254.603 134.551C253.8 134.003 252.999 133.454 252.198 132.905C251.458 132.399 250.643 133.511 251.31 134.134C251.73 134.525 252.48 135.229 252.524 135.85C252.592 136.793 251.553 136.195 251.189 135.844C250.258 134.949 249.661 133.594 249.253 132.393C248.401 129.884 248.03 127.211 247.52 124.631C247.32 123.617 245.844 123.979 246.043 124.985C246.81 128.867 247.175 133.768 250.04 136.836C251.015 137.879 252.683 138.472 253.698 137.299C254.832 135.989 253.391 133.996 252.36 133.034C252.064 133.444 251.768 133.853 251.472 134.263C253.084 135.365 256.762 138.764 258.492 136.438C260.21 134.13 255.406 131.636 253.965 130.796C253.722 131.248 253.481 131.701 253.239 132.153C254.915 133.006 256.626 133.777 258.37 134.443C259.647 134.93 261.388 135.433 262.161 133.964C262.931 132.502 261.32 131.312 260.284 130.526C258.827 129.418 257.206 128.592 255.509 128.013C255.39 128.521 255.271 129.028 255.152 129.536C256.858 129.892 258.572 130.252 260.298 130.41C261.327 130.504 263.34 130.883 263.794 129.621C264.288 128.247 262.428 127.397 261.471 127.01C259.758 126.318 257.993 125.775 256.221 125.318C256.167 125.838 256.112 126.356 256.059 126.875C257.602 126.967 259.138 126.944 260.662 126.788C262.052 126.647 263.442 126.369 264.36 125.24C264.62 124.921 264.647 124.446 264.323 124.115C262.052 121.799 257.987 122.899 255.428 123.603C254.487 123.862 254.9 125.374 255.855 125.153C257.847 124.693 259.869 124.211 261.676 123.253C262.523 122.805 265.265 121.215 263.454 120.002C262.796 119.563 261.882 119.709 261.172 119.783C260.254 119.878 259.362 120.087 258.494 120.381C256.68 120.999 255 121.922 253.341 122.861C253.609 123.328 253.877 123.795 254.145 124.261C256.174 123.012 257.936 121.4 259.343 119.443C259.801 118.804 260.515 118.001 260.238 117.108C259.95 116.18 258.998 116.096 258.256 116.32C256.162 116.951 254.466 118.434 252.884 119.886C251.999 120.699 251.131 121.543 250.175 122.271C249.762 122.586 249.331 122.881 248.881 123.139C248.464 123.38 247.693 123.936 247.179 123.829C246.206 123.626 245.84 125.147 246.821 125.352Z" fill="#363636"/>
<path d="M196.589 110.22C196.713 110.191 196.829 110.211 196.94 110.281C197.424 110.59 208.951 117.929 211.3 125.172C213.661 132.461 217.756 136.742 219.387 137.094C219.319 137.515 219.447 136.326 219.177 138.109C219.112 138.522 217.227 136.741 219.36 137.1C215.73 136.489 219.342 138.118 218.924 137.97C217.794 137.573 216.296 136.218 214.842 134.271C213.564 132.555 211.76 129.639 210.409 125.471C208.171 118.572 196.58 111.189 196.461 111.117C196.379 111.065 196.316 110.992 196.277 110.905C196.236 110.815 196.223 110.719 196.235 110.621C196.249 110.522 196.288 110.437 196.353 110.366C196.418 110.295 196.495 110.245 196.588 110.224L196.589 110.22Z" fill="#363636"/>
<path d="M177.297 112.099C177.296 112.031 177.31 111.973 177.339 111.923C177.468 111.708 180.332 106.377 182.752 106.005C185.186 105.632 186.99 104.204 187.208 103.397C187.335 103.482 186.972 103.276 187.511 103.625C187.636 103.707 186.955 104.478 187.208 103.412C186.776 105.227 187.525 103.54 187.451 103.741C187.252 104.282 186.729 104.901 186.024 105.429C185.403 105.892 184.089 106.624 182.697 106.838C180.392 107.192 177.599 112.217 177.569 112.27C177.547 112.307 177.52 112.331 177.49 112.341C177.459 112.352 177.428 112.347 177.398 112.33C177.369 112.311 177.345 112.28 177.327 112.238C177.309 112.196 177.299 112.15 177.298 112.1L177.297 112.099Z" fill="#363636"/>
<path d="M218.753 137.232L218.698 138.065C218.698 138.065 217.865 138.011 217.531 136.734C217.197 135.457 218.364 136.789 218.364 136.789L219.586 137.287L218.753 137.232Z" fill="#363636"/>
<path d="M218.752 137.36C219.726 138.84 219.989 140.656 220.931 142.153C221.667 143.324 222.911 144.332 224.105 145.089C225.688 146.092 227.089 147.243 228.422 148.513C229.12 149.179 229.804 149.835 230.351 150.62C230.839 151.321 231.515 152.134 231.575 153.012C231.697 152.86 231.82 152.706 231.942 152.553C231.67 152.602 231.237 152.388 230.956 152.358C230.49 152.308 230.002 152.329 229.529 152.323C228.331 152.304 227.216 152.233 226.109 151.848C225.084 151.493 224.346 150.948 223.479 150.374C222.493 149.719 221.693 149.06 221.051 148.083C220.001 146.486 219.477 144.416 219.147 142.543C218.966 141.509 218.962 140.528 218.993 139.469C219.01 138.865 219.055 138.155 218.829 137.603C218.678 137.232 218.097 137.409 218.168 137.807C218.189 137.922 218.105 138.197 218.105 138.34C218.101 138.893 218.077 139.424 218.027 139.983C217.928 141.07 218.016 141.94 218.223 142.989C218.634 145.07 219.341 147.35 220.713 149.009C221.997 150.562 223.823 151.916 225.82 152.623C226.777 152.961 227.736 153.122 228.777 153.163C229.425 153.189 230.12 153.146 230.757 153.234C231.218 153.299 231.575 153.52 232.056 153.439C232.308 153.397 232.566 153.224 232.554 152.956C232.485 151.524 231.341 150.079 230.402 149.048C229.126 147.647 227.641 146.297 226.068 145.185C224.62 144.162 222.952 143.352 221.877 141.938C220.752 140.459 220.227 138.616 219.025 137.19C218.909 137.053 218.646 137.199 218.752 137.36Z" fill="#3F3F3F"/>
<path d="M218.756 137.349C219.538 138.801 219.856 140.506 220.616 141.971C221.211 143.117 222.143 144.153 223.021 144.951C224.186 146.01 227.441 148.25 228.454 149.536C228.985 150.211 229.652 150.627 230.088 151.4C230.476 152.09 228.649 152.086 228.757 152.905C228.829 152.774 228.513 152.585 228.585 152.453C228.402 152.476 228.477 152.299 228.282 152.249C227.957 152.164 227.623 152.144 227.298 152.1C226.472 151.985 225.699 151.829 224.908 151.382C224.176 150.969 223.628 150.403 222.988 149.801C222.26 149.113 221.661 148.438 221.145 147.479C220.303 145.913 219.786 143.951 219.418 142.187C219.216 141.214 219.139 140.305 219.081 139.325C219.047 138.766 219.024 138.112 218.828 137.581C218.696 137.225 218.309 137.342 218.388 137.717C218.411 137.825 218.374 138.073 218.385 138.205C218.424 138.719 218.447 139.209 218.455 139.723C218.468 140.723 218.594 141.536 218.816 142.526C219.255 144.489 219.914 146.66 220.982 148.31C221.982 149.855 223.341 151.259 224.768 152.076C225.452 152.468 226.124 152.695 226.843 152.818C227.291 152.895 227.766 152.912 228.211 153.045C228.533 153.142 231.477 152.7 231.802 152.664C231.972 152.646 231.572 151.927 231.544 151.678C231.389 150.345 229.865 149.967 229.14 148.935C228.157 147.532 226.657 146.623 225.491 145.464C224.417 144.398 222.097 143.247 221.251 141.849C220.365 140.385 219.866 138.634 218.931 137.214C218.841 137.078 218.671 137.191 218.756 137.349Z" fill="#3F3F3F"/>
<path d="M219.481 138.606C219.705 139.624 219.651 141.145 219.938 142.145C220.22 143.137 220.852 143.993 221.331 144.911C221.786 145.781 222.413 146.521 223.127 147.277C223.664 147.847 224.564 148.489 225.667 148.658C225.948 148.7 226.217 148.421 225.968 148.349C224.822 148.022 224.366 147.073 223.756 146.424C223.41 146.056 223.026 145.725 222.77 145.315C222.527 144.922 222.349 144.504 222.115 144.109C221.646 143.313 221.004 142.58 220.675 141.73C220.322 140.813 220.109 139.874 219.781 138.949C219.728 138.797 219.448 138.449 219.481 138.606Z" fill="#3F3F3F"/>
<path d="M220.611 138.203C221.463 138.803 222.449 139.962 223.335 140.507C224.211 141.049 225.256 141.256 226.229 141.611C227.151 141.946 228.113 142.07 229.15 142.147C229.932 142.205 231.028 142.073 231.957 141.454C232.193 141.296 232.537 140.937 232.305 141.051C231.238 141.582 229.928 141.16 229.039 141.092C228.536 141.055 228.029 141.069 227.564 140.938C227.119 140.812 226.706 140.623 226.267 140.489C225.384 140.218 224.416 140.11 223.599 139.704C222.72 139.265 221.93 138.715 221.064 138.253C220.922 138.177 220.481 138.109 220.611 138.203Z" fill="#3F3F3F"/>
<path d="M220.902 147.328C221.432 148.069 221.79 149.438 222.386 150.121C222.974 150.801 223.919 151.126 224.709 151.608C225.459 152.064 226.365 152.291 227.374 152.473C228.134 152.611 229.32 152.567 230.605 151.973C230.932 151.821 231.48 151.458 231.181 151.563C229.804 152.047 228.71 151.459 227.847 151.301C227.357 151.212 226.835 151.181 226.435 150.993C226.055 150.813 225.74 150.566 225.369 150.377C224.624 149.995 223.703 149.785 223.1 149.261C222.452 148.696 221.955 148.016 221.333 147.426C221.231 147.329 220.822 147.212 220.902 147.328Z" fill="#3F3F3F"/>
<path d="M229.713 103.864C230.112 103.671 230.266 103.281 230.534 102.961C230.802 102.643 231.127 102.384 231.385 102.055C231.903 101.392 232.48 100.729 233.091 100.149C234.47 98.8476 235.713 97.4152 236.886 95.9251C237.405 95.264 237.939 94.6022 238.486 93.9641C239.12 93.2228 239.633 92.3741 240.277 91.6456C240.601 91.2802 240.967 91.0171 241.225 90.5901C241.416 90.2774 241.567 89.939 241.788 89.6473C242.39 88.8518 243.126 88.2625 243.563 87.3249C243.618 87.4299 243.672 87.5348 243.726 87.6383C242.911 87.4378 242.441 87.7938 241.803 88.0004C241.353 88.1456 240.85 88.1504 240.412 88.3258C239.486 88.697 238.584 89.1172 237.66 89.4962C235.737 90.2849 234.339 92.0706 233.427 93.8701C233.021 94.6719 232.684 95.9165 232.771 96.9035C232.858 97.8888 232.999 98.8241 232.903 99.7757C232.817 100.627 232.587 101.396 232.065 101.994C231.677 102.438 231.335 103.105 230.673 103.205C230.302 103.261 229.888 102.71 230.176 102.469C230.451 102.239 230.343 101.699 230.466 101.375C230.638 100.915 231.047 100.664 231.19 100.178C231.5 99.1346 231.537 98.0788 231.465 96.9152C231.332 94.748 232.441 92.9882 233.598 91.5069C234.227 90.7041 234.965 90.0121 235.789 89.4027C236.51 88.8699 237.484 88.6335 238.367 88.3488C238.881 88.1841 239.38 88.0056 239.875 87.8086C240.379 87.6085 240.915 87.5986 241.453 87.4779C242.248 87.2981 242.852 86.9579 243.788 87.2579C243.915 87.2989 244.012 87.4739 243.951 87.5713C243.494 88.3073 242.902 88.9319 242.367 89.605C241.83 90.2832 241.552 91.1065 240.97 91.7502C240.265 92.5296 239.768 93.5053 239.089 94.3176C238.444 95.0894 237.802 95.8973 237.211 96.7135C236.069 98.2883 234.67 99.6379 233.331 101.034C232.72 101.673 232.142 102.357 231.505 102.968C231.012 103.441 230.62 104.033 229.834 104.09C229.709 104.1 229.598 103.92 229.713 103.864Z" fill="#3F3F3F"/>
<path d="M230.552 102.223C230.911 102.053 231.053 101.711 231.295 101.43C231.538 101.15 231.832 100.922 232.066 100.633C232.536 100.051 233.058 99.4677 233.612 98.9579C234.858 97.8132 235.985 96.5543 237.048 95.2452C237.519 94.6644 238.004 94.0829 238.499 93.522C239.073 92.8706 239.541 92.1254 240.124 91.4852C240.417 91.1641 240.748 90.9323 240.982 90.5575C241.156 90.2829 241.295 89.986 241.495 89.7298C242.042 89.0309 242.706 88.5122 243.106 87.6895C243.154 87.7813 243.202 87.873 243.25 87.9635C242.52 87.7906 242.097 88.104 241.522 88.2871C241.118 88.4158 240.667 88.4218 240.273 88.5768C239.44 88.9051 238.628 89.2763 237.797 89.6114C236.066 90.3087 234.798 91.8776 233.966 93.4569C233.594 94.1605 233.283 95.2519 233.352 96.1161C233.422 96.9788 233.54 97.7977 233.446 98.6314C233.361 99.3771 233.149 100.052 232.676 100.577C232.324 100.967 232.012 101.553 231.418 101.643C231.085 101.693 230.719 101.212 230.979 100.999C231.227 100.797 231.135 100.325 231.248 100.041C231.406 99.6371 231.774 99.4161 231.907 98.9901C232.193 98.0746 232.236 97.1497 232.181 96.1308C232.08 94.2329 233.089 92.6878 234.139 91.3863C234.709 90.681 235.377 90.0724 236.12 89.5358C236.771 89.0667 237.646 88.8563 238.44 88.6039C238.902 88.4579 239.351 88.2999 239.796 88.1257C240.25 87.9487 240.73 87.9382 241.214 87.8307C241.928 87.6705 242.672 87.2232 243.509 87.4828C243.622 87.5183 243.507 87.8185 243.452 87.904C243.036 88.5503 242.499 89.0994 242.015 89.6907C241.528 90.2866 241.271 91.0087 240.744 91.5745C240.106 92.2596 239.652 93.1159 239.036 93.8297C238.452 94.5079 237.87 95.2177 237.333 95.9346C236.296 97.3179 235.03 98.5048 233.819 99.7321C233.265 100.294 232.742 100.895 232.166 101.432C231.72 101.848 231.363 102.368 230.659 102.421C230.547 102.43 230.449 102.273 230.552 102.223Z" fill="#3F3F3F"/>
<path d="M231.872 101.952C232.052 101.477 232.305 101.064 232.545 100.63C232.785 100.193 232.976 99.7222 233.198 99.275C233.67 98.3234 234.294 97.4853 234.746 96.5189C235.159 95.6345 235.779 94.9265 236.212 94.0569C236.698 93.0787 237.251 92.1498 237.863 91.2668C237.944 91.1507 238.128 91.3322 238.09 91.4498C237.744 92.5324 237.173 93.4737 236.715 94.4897C236.315 95.3751 235.718 96.1005 235.282 96.961C234.826 97.8618 234.209 98.6421 233.729 99.5255C233.507 99.9337 233.328 100.374 233.058 100.744C232.729 101.195 232.339 101.583 232.051 102.069C231.993 102.159 231.831 102.055 231.872 101.952Z" fill="#3F3F3F"/>
<path d="M187.086 104.564C188.139 103.392 189.09 102.865 190.261 101.782C191.194 100.919 192.158 100.07 192.968 99.1088C194.591 97.1816 194.974 95.1273 195.157 93.2482C195.248 92.3206 194.617 91.9528 193.808 91.7801C192.906 91.5865 192.027 91.8602 190.953 92.2809C189.896 92.6958 189.117 93.2546 188.393 94.2266C187.689 95.1722 187.244 96.2587 186.969 97.224C186.789 97.8546 186.538 98.5068 186.455 99.1176C186.374 99.7164 186.329 100.309 186.231 100.912C186.136 101.504 185.912 102.124 185.876 102.703C185.842 103.241 186.158 104.464 186.42 104.823C186.499 104.932 186.809 105.267 186.609 103.73C186.599 103.355 186.524 103.007 186.52 102.629C186.514 102.135 186.688 101.599 186.801 101.073C186.992 100.175 186.924 99.3316 187.173 98.421C187.587 96.8942 188.242 94.1099 190.291 93.1247C191.237 92.6707 192.325 92.2951 193.162 92.3623C193.613 92.3995 194.162 92.5223 194.408 92.825C194.641 93.1115 194.516 93.5812 194.456 94.0131C194.203 95.8291 193.787 97.5893 192.177 99.3859C191.329 100.333 190.35 101.19 189.435 102.083C188.46 103.034 187.515 103.157 186.633 104.169C186.447 104.383 186.901 104.771 187.086 104.564Z" fill="#3F3F3F"/>
<path d="M187.465 104.107C188.413 103.025 189.269 102.546 190.323 101.548C191.163 100.755 192.03 99.9743 192.759 99.0856C194.22 97.3047 194.562 95.3855 194.725 93.6274C194.806 92.7595 194.236 92.405 193.507 92.2307C192.693 92.0353 191.902 92.2782 190.935 92.6558C189.982 93.0282 189.28 93.5398 188.629 94.4395C187.996 95.3148 187.596 96.3261 187.35 97.2265C187.188 97.8146 186.963 98.4219 186.889 98.993C186.817 99.5529 186.777 100.107 186.69 100.671C186.605 101.225 186.404 101.802 186.371 102.344C186.342 102.847 186.069 104.039 186.305 104.38C186.377 104.483 186.559 104.464 187.034 103.318C187.024 102.966 186.957 102.639 186.952 102.285C186.946 101.822 187.103 101.322 187.203 100.831C187.375 99.9925 187.312 99.2009 187.535 98.3513C187.907 96.927 188.493 94.3278 190.339 93.4363C191.191 93.0255 192.171 92.6904 192.926 92.7663C193.332 92.8081 193.827 92.9317 194.049 93.2192C194.26 93.4913 194.148 93.9296 194.094 94.3334C193.868 96.0313 193.496 97.6743 192.047 99.3331C191.283 100.208 190.403 100.995 189.579 101.818C188.701 102.695 187.869 102.845 187.075 103.78C186.908 103.978 187.02 104.613 187.465 104.107Z" fill="#3F3F3F"/>
<path d="M189.547 96.7561C188.942 98.0445 188.252 99.3295 187.631 100.617C187.344 101.21 187.024 101.815 186.779 102.409C186.518 103.04 186.506 103.544 186.46 104.123C186.45 104.257 186.672 104.233 186.765 104.1C187.164 103.528 187.164 103.046 187.352 102.484C187.559 101.864 187.889 101.212 188.164 100.588C188.722 99.3177 189.343 98.048 189.883 96.7786C189.979 96.5493 189.658 96.5216 189.547 96.7561Z" fill="#3F3F3F"/>
<path d="M190.275 98.2639C189.688 99.334 188.755 100.321 188.286 101.406C188.078 101.885 187.649 102.32 187.497 102.804C187.431 103.016 187.051 103.54 187.042 103.739C187.131 103.535 187.035 103.919 187.042 103.739C186.962 103.918 187.29 104.404 187.468 104.224C187.833 103.853 188.138 103.307 188.24 102.906C188.29 102.709 188.348 102.52 188.46 102.319C188.609 102.053 188.785 101.8 188.892 101.529C188.996 101.266 189.067 101.023 189.21 100.759C189.354 100.493 189.515 100.229 189.673 99.9645C190.005 99.4068 190.342 98.8503 190.585 98.2847C190.678 98.0704 190.394 98.0476 190.275 98.2639Z" fill="#3F3F3F"/>
<path d="M219.169 137.024C219.571 137.199 219.926 137.343 220.257 137.632C220.65 137.973 221.047 138.309 221.467 138.618C222.253 139.193 223.145 139.699 224.086 139.972C224.435 140.074 224.787 140.164 225.098 140.359C225.534 140.632 225.816 140.876 226.332 141.008C227.205 141.23 228.056 141.52 228.929 141.74C229.756 141.948 230.69 142.041 231.49 141.668C232.494 141.198 232.598 140.265 232.141 139.347C231.312 137.687 229.436 136.701 227.607 136.651C227.171 136.639 226.733 136.693 226.299 136.648C225.822 136.6 225.371 136.478 224.884 136.485C223.919 136.498 222.984 136.724 222.015 136.658C221.9 136.65 221.886 136.475 222.008 136.473C223.029 136.461 224.031 136.19 225.052 136.202C225.54 136.208 226.003 136.351 226.488 136.374C226.961 136.397 227.435 136.335 227.909 136.377C229.805 136.547 231.548 137.561 232.488 139.227C232.847 139.864 233.047 140.605 232.67 141.288C232.286 141.984 231.51 142.368 230.757 142.506C229.821 142.678 228.875 142.525 227.969 142.277C227.466 142.139 226.972 141.993 226.46 141.894C225.957 141.795 225.441 141.7 225.014 141.405C224.463 141.026 223.94 140.922 223.315 140.706C222.706 140.496 222.14 140.221 221.606 139.863C221.114 139.533 220.651 139.162 220.207 138.769C219.953 138.545 219.655 138.32 219.437 138.058C219.243 137.824 219.116 137.511 218.971 137.244C218.896 137.109 219.028 136.963 219.169 137.024Z" fill="#3F3F3F"/>
<path d="M219.837 138.004C220.485 138.117 221.142 138.176 221.785 138.319C222.442 138.467 223.037 138.789 223.68 138.979C224.274 139.154 224.886 139.26 225.474 139.451C226.042 139.636 226.577 139.925 227.05 140.289C227.181 140.39 227.027 140.613 226.886 140.526C225.833 139.868 224.578 139.734 223.425 139.338C222.825 139.133 222.268 138.831 221.647 138.686C221.024 138.542 220.389 138.473 219.762 138.353C219.533 138.31 219.609 137.965 219.837 138.004Z" fill="#3F3F3F"/>
<path d="M182.108 121.855C187.582 121.193 192.347 123.729 197.149 128.718C198.525 130.147 199.814 131.744 201.024 133.458C201.037 133.207 201.05 132.956 201.063 132.705C198.3 133.464 195.327 134.256 192.377 132.957C189.451 131.669 187.203 128.304 185.06 125.223C184.491 124.404 183.919 123.586 183.326 122.8C182.757 122.045 183.882 121.193 183.138 120.891C182.737 120.727 180.638 121.148 181.036 121.31C181.755 121.603 182.751 123.149 183.29 123.882C183.877 124.681 184.446 125.505 185.017 126.326C186.085 127.864 187.16 129.41 188.356 130.747C189.496 132.022 190.741 133.072 192.083 133.712C193.522 134.397 195.011 134.584 196.448 134.509C198.118 134.423 199.733 133.992 201.336 133.551C201.589 133.482 201.529 133.017 201.374 132.798C197.106 126.752 191.723 122.286 186.004 121.168C184.36 120.847 183.357 120.811 181.755 121.004C181.362 121.052 182.183 121.369 182.108 121.855Z" fill="#363636"/>
<path d="M182.813 121.975C187.668 121.472 191.937 123.908 196.272 128.612C197.513 129.959 198.681 131.46 199.779 133.066C199.787 132.835 199.795 132.603 199.803 132.371C197.358 133.018 194.726 133.691 192.087 132.433C189.47 131.186 187.427 128.032 185.481 125.145C184.964 124.377 184.445 123.611 183.908 122.872C183.392 122.164 184.38 121.399 183.715 121.105C183.357 120.947 181.497 121.294 181.853 121.451C182.496 121.735 183.401 123.183 183.89 123.872C184.423 124.621 184.939 125.393 185.457 126.163C186.427 127.604 187.404 129.054 188.484 130.312C189.515 131.512 190.634 132.506 191.836 133.124C193.124 133.785 194.45 133.987 195.726 133.947C197.209 133.9 199.017 133.492 200.436 133.117C200.66 133.058 200.608 132.668 200.468 132.462C196.593 126.793 191.364 122.564 186.266 121.418C184.801 121.089 183.909 121.036 182.488 121.183C182.139 121.219 182.873 121.528 182.813 121.975Z" fill="#363636"/>
<path d="M182.891 122.084C183.732 122.271 184.4 122.81 185.15 123.649C186.068 124.676 187.014 125.651 187.961 126.59C188.976 127.596 190.007 128.423 191.099 128.961C192.298 129.55 193.506 130.008 194.706 130.517C194.967 130.628 194.973 130.012 194.713 129.903C193.532 129.402 192.345 128.949 191.166 128.376C190.005 127.812 188.923 126.9 187.851 125.818C186.922 124.881 186.007 123.905 185.097 122.909C184.379 122.122 183.692 121.645 182.898 121.469C182.642 121.413 182.633 122.027 182.891 122.084Z" fill="#363636"/>
<defs>
<filter id="filter0_d_1448_117" x="11" y="15" width="408" height="408" filterUnits="userSpaceOnUse" color-interpolation-filters="sRGB">
<feFlood flood-opacity="0" result="BackgroundImageFix"/>
<feColorMatrix in="SourceAlpha" type="matrix" values="0 0 0 0 0 0 0 0 0 0 0 0 0 0 0 0 0 0 127 0" result="hardAlpha"/>
<feOffset dy="4"/>
<feGaussianBlur stdDeviation="2"/>
<feComposite in2="hardAlpha" operator="out"/>
<feColorMatrix type="matrix" values="0 0 0 0 0 0 0 0 0 0 0 0 0 0 0 0 0 0 0.25 0"/>
<feBlend mode="normal" in2="BackgroundImageFix" result="effect1_dropShadow_1448_117"/>
<feBlend mode="normal" in="SourceGraphic" in2="effect1_dropShadow_1448_117" result="shape"/>
</filter>
</defs>
</svg>
