<svg width="35" height="35" viewBox="0 0 35 35" fill="none" xmlns="http://www.w3.org/2000/svg">
<path d="M32.935 0.00257499C32.5473 0.0212771 32.17 0.139922 31.8296 0.289768C31.4928 0.438613 29.5536 1.34873 26.6898 2.69501C23.8261 4.0413 20.1035 5.79444 16.4134 7.53286C9.03309 11.0097 1.78069 14.4306 1.78069 14.4306L1.83355 14.4084C1.83355 14.4084 1.39583 14.5693 0.952039 14.9093C0.730146 15.0793 0.491424 15.2987 0.295962 15.6187C0.1005 15.9387 -0.0423956 16.3921 0.0114549 16.8718C0.200602 18.5564 1.78846 19.0343 1.78846 19.0343L1.79468 19.0377L8.88093 21.7045C9.0616 22.3672 11.0302 29.592 11.4633 31.122C11.7024 31.9679 11.9263 32.4559 12.1598 32.7888C12.2766 32.9554 12.3991 33.0843 12.5344 33.1785C12.5882 33.216 12.6448 33.2441 12.7008 33.2691H12.7039C12.7108 33.2725 12.7173 33.2728 12.7241 33.276L12.7055 33.2709C12.7185 33.2766 12.7313 33.2864 12.7443 33.2914C12.7696 33.3011 12.7851 33.3008 12.8174 33.3085C13.6289 33.62 14.3006 33.0418 14.3006 33.0418L14.3285 33.0179L18.6817 28.5783L25.7462 34.635L25.8348 34.6795C27.0713 35.2832 28.1896 34.9464 28.8089 34.3923C29.4282 33.8382 29.6717 33.1238 29.6717 33.1238L29.6982 33.0486L34.8893 3.29846C35.0221 2.63288 35.041 2.05757 34.9157 1.53769C34.7904 1.01782 34.486 0.565897 34.1041 0.315411C33.7222 0.0649246 33.3227 -0.0161271 32.935 0.00257499ZM32.977 1.78215C33.1344 1.77413 33.2511 1.79392 33.2879 1.81805C33.3247 1.84217 33.3412 1.839 33.3765 1.98558C33.4119 2.13216 33.431 2.44089 33.3346 2.92408L33.3315 2.93434L28.1699 32.5118C28.1577 32.5416 28.0501 32.8152 27.8046 33.0349C27.554 33.2591 27.2754 33.4341 26.5359 33.0931L18.8107 26.4688L18.593 26.2808L18.5884 26.2859L16.2781 24.3798L29.2613 7.58414C29.3611 7.45542 29.4248 7.29767 29.4447 7.12998C29.4647 6.96229 29.44 6.79183 29.3738 6.63921C29.3075 6.48659 29.2024 6.35835 29.0713 6.27C28.9401 6.18164 28.7885 6.13695 28.6348 6.14133C28.4845 6.14563 28.3384 6.1966 28.2134 6.28835L9.42663 20.06L2.32949 17.388C2.32949 17.388 1.62475 16.9568 1.59101 16.6564C1.58914 16.6397 1.58082 16.6548 1.61744 16.5948C1.65407 16.5349 1.74612 16.4337 1.86153 16.3452C2.09235 16.1684 2.35592 16.0615 2.35592 16.0615L2.38235 16.0512L2.40878 16.0393C2.40878 16.0393 9.66156 12.6181 17.0415 9.14148C20.7314 7.40316 24.4534 5.6513 27.3164 4.30535C30.1786 2.95974 32.2468 1.99119 32.422 1.91378C32.6213 1.82599 32.8195 1.79017 32.977 1.78215ZM24.3671 11.2117L14.5213 23.949L14.5167 23.9542C14.5013 23.9745 14.4868 23.9956 14.4731 24.0174C14.4575 24.0411 14.443 24.0656 14.4296 24.0909C14.3743 24.1942 14.3388 24.3088 14.3254 24.4277C14.3254 24.43 14.3254 24.4323 14.3254 24.4345L13.0428 30.7767C13.0215 30.7082 13.0066 30.6831 12.9837 30.6024V30.6006C12.5764 29.1613 10.719 22.3477 10.462 21.4053L24.3671 11.2117ZM15.6329 26.0363L17.4022 27.4962L14.8027 30.1459L15.6329 26.0363Z" fill="black"/>
</svg>
