<svg width="11" height="11" viewBox="0 0 11 11" fill="none" xmlns="http://www.w3.org/2000/svg">
<path d="M3.25 0C1.45812 0 0 1.45812 0 3.25V7.75C0 9.54188 1.45812 11 3.25 11H7.75C9.54188 11 11 9.54188 11 7.75V3.25C11 1.45812 9.54188 0 7.75 0H3.25ZM3.25 0.5H7.75C9.27162 0.5 10.5 1.72838 10.5 3.25V7.75C10.5 9.27162 9.27162 10.5 7.75 10.5H3.25C1.72838 10.5 0.5 9.27162 0.5 7.75V3.25C0.5 1.72838 1.72838 0.5 3.25 0.5ZM8.5 2C8.36739 2 8.24021 2.05268 8.14645 2.14645C8.05268 2.24021 8 2.36739 8 2.5C8 2.63261 8.05268 2.75979 8.14645 2.85355C8.24021 2.94732 8.36739 3 8.5 3C8.63261 3 8.75979 2.94732 8.85355 2.85355C8.94732 2.75979 9 2.63261 9 2.5C9 2.36739 8.94732 2.24021 8.85355 2.14645C8.75979 2.05268 8.63261 2 8.5 2ZM5.5 2.75C3.98418 2.75 2.75 3.98418 2.75 5.5C2.75 7.01582 3.98418 8.25 5.5 8.25C7.01582 8.25 8.25 7.01582 8.25 5.5C8.25 3.98418 7.01582 2.75 5.5 2.75ZM5.5 3.25C6.7456 3.25 7.75 4.2544 7.75 5.5C7.75 6.7456 6.7456 7.75 5.5 7.75C4.2544 7.75 3.25 6.7456 3.25 5.5C3.25 4.2544 4.2544 3.25 5.5 3.25Z" fill="#050000"/>
</svg>
