<svg width="11" height="11" viewBox="0 0 11 11" fill="none" xmlns="http://www.w3.org/2000/svg">
<path d="M5.5 0C5.49835 0 5.49711 0 5.49546 0C5.49464 0 5.49422 0 5.4934 0C5.49133 0 5.48927 0.000412734 5.4868 0.000412734C2.45494 0.00742804 0 2.46691 0 5.5C0 8.53226 2.45494 10.9922 5.4868 10.9996C5.48886 10.9996 5.49092 11 5.4934 11C5.49422 11 5.49505 11 5.49546 11C5.49711 11 5.49876 11 5.5 11C8.53722 11 11 8.53722 11 5.5C11 2.46279 8.53722 0 5.5 0ZM5.71995 3.29142C6.30305 3.27532 6.87046 3.19857 7.41683 3.06528C7.58148 3.71357 7.68382 4.46091 7.69992 5.28005H5.71995V3.29142ZM5.71995 2.85152V0.474978C6.31295 0.639218 6.91379 1.42988 7.29674 2.64229C6.78875 2.76486 6.26137 2.83625 5.71995 2.85152ZM5.28005 0.469613V2.85152C4.73409 2.83625 4.20258 2.76362 3.69046 2.63899C4.07672 1.41916 4.68292 0.6256 5.28005 0.470026V0.469613ZM5.28005 3.291V5.28005H3.28646C3.30256 4.45967 3.4049 3.71151 3.56997 3.0628C4.12046 3.19733 4.69241 3.27532 5.28005 3.291ZM2.84368 5.28005H0.445678C0.494373 4.14893 0.915704 3.11273 1.59 2.29194C2.07983 2.56182 2.59938 2.7826 3.1441 2.94767C2.96624 3.6492 2.85977 4.44028 2.84368 5.28005ZM2.84368 5.71995C2.85977 6.55931 2.96624 7.35039 3.1441 8.05192C2.59979 8.2174 2.07983 8.43818 1.59 8.70806C0.915291 7.88727 0.49396 6.85107 0.445678 5.71995H2.84368ZM3.28646 5.71995H5.28005V7.70652C4.69241 7.7222 4.12046 7.80061 3.56955 7.93555C3.4049 7.28725 3.30256 6.5395 3.28646 5.71995ZM5.28005 8.14601V10.5304C4.68251 10.3744 4.07548 9.58002 3.68964 8.35853C4.20176 8.23391 4.73368 8.16128 5.28005 8.14601ZM5.71995 10.5254V8.14642C6.26178 8.1621 6.78917 8.23349 7.29716 8.35606C6.9142 9.5697 6.31336 10.3616 5.71995 10.5254ZM5.71995 7.70652V5.71995H7.69992C7.68382 6.53827 7.5819 7.28436 7.41765 7.93225C6.87087 7.79896 6.30346 7.72179 5.72036 7.70611L5.71995 7.70652ZM8.14271 5.71995H10.5547C10.506 6.85107 10.0851 7.88686 9.41042 8.70765C8.91646 8.43611 8.39237 8.21369 7.84353 8.04779C8.02097 7.34709 8.12703 6.55766 8.14312 5.72036L8.14271 5.71995ZM8.14271 5.28005C8.12661 4.4411 8.02015 3.65167 7.8427 2.95014C8.39155 2.78425 8.91522 2.56224 9.40876 2.2907C10.0839 3.11149 10.5056 4.14811 10.5543 5.28005H8.14271ZM9.10587 1.95479C8.66803 2.18754 8.20626 2.38025 7.72344 2.52634C7.46635 1.69894 7.10527 1.02341 6.67816 0.579795C7.61491 0.804697 8.45138 1.28917 9.10587 1.95479ZM4.30451 0.583921C3.87988 1.02671 3.52045 1.69894 3.26418 2.52221C2.78631 2.37654 2.32826 2.18589 1.89455 1.95479C2.54449 1.29371 3.37478 0.810062 4.30451 0.583921ZM1.89289 9.04356C2.32702 8.81205 2.78549 8.62099 3.26377 8.47532C3.52003 9.29941 3.87946 9.97288 4.30451 10.4157C3.37395 10.1891 2.54325 9.70588 1.89289 9.04356ZM6.67816 10.4198C7.10568 9.97618 7.46676 9.30065 7.72426 8.4716C8.20708 8.6181 8.66927 8.80999 9.10711 9.04397C8.45262 9.71001 7.61573 10.1957 6.67816 10.4198Z" fill="black"/>
</svg>
